# xmcd CD database file
#
# Track frame offsets:
#	150
#	57217
#	115735
#
# Disc length: 2911 seconds
#
# Revision: 0
# Processed by: cddbd v1.4PL0 Copyright (c) Steve Scherf et al.
# Submitted via: CDex 1.50Beta3
#
DISCID=1e0b5d03
DTITLE=Creative Music Studio - Woodstock Jazz Festival 2
DYEAR=1981
DGENRE=Jazz
TTITLE0=Impressions
TTITLE1=No Greater Love
TTITLE2=All Blues
EXTD=YEAR: 1981
EXTT0=
EXTT1=
EXTT2=
PLAYORDER=
